<svg xmlns="http://www.w3.org/2000/svg" xmlns:xlink="http://www.w3.org/1999/xlink" version="1.2" width="210.00mm" height="297.00mm" viewBox="0.0000 -0.0000 119.5016 169.0094">
<style type="text/css">
<![CDATA[
tspan { white-space: pre; }
]]>
</style>
<g transform="translate(112.5819, 4.4381)">
<text font-family="serif" font-size="2.2001" text-anchor="start" fill="currentColor">
<tspan>3</tspan>
</text>
</g>
<g transform="translate(5.6906, 11.2391)">
<line stroke-linejoin="round" stroke-linecap="round" stroke-width="0.1000" stroke="currentColor" x1="0.0500" y1="0" x2="108.0705" y2="0"/>
</g>
<g transform="translate(5.6906, 10.2391)">
<line stroke-linejoin="round" stroke-linecap="round" stroke-width="0.1000" stroke="currentColor" x1="0.0500" y1="0" x2="108.0705" y2="0"/>
</g>
<g transform="translate(5.6906, 9.2391)">
<line stroke-linejoin="round" stroke-linecap="round" stroke-width="0.1000" stroke="currentColor" x1="0.0500" y1="0" x2="108.0705" y2="0"/>
</g>
<g transform="translate(5.6906, 8.2391)">
<line stroke-linejoin="round" stroke-linecap="round" stroke-width="0.1000" stroke="currentColor" x1="0.0500" y1="0" x2="108.0705" y2="0"/>
</g>
<g transform="translate(5.6906, 7.2391)">
<line stroke-linejoin="round" stroke-linecap="round" stroke-width="0.1000" stroke="currentColor" x1="0.0500" y1="0" x2="108.0705" y2="0"/>
</g>
<g transform="translate(113.6210, 27.8592)">
<rect x="0.0000" y="-2.0000" width="0.1900" height="4.0000" ry="0.0000" fill="currentColor"/>
</g>
<g transform="translate(5.6906, 20.8592)">
<line stroke-linejoin="round" stroke-linecap="round" stroke-width="0.1000" stroke="currentColor" x1="0.0500" y1="0" x2="108.0705" y2="0"/>
</g>
<g transform="translate(5.6906, 19.8592)">
<line stroke-linejoin="round" stroke-linecap="round" stroke-width="0.1000" stroke="currentColor" x1="0.0500" y1="0" x2="108.0705" y2="0"/>
</g>
<g transform="translate(5.6906, 18.8592)">
<line stroke-linejoin="round" stroke-linecap="round" stroke-width="0.1000" stroke="currentColor" x1="0.0500" y1="0" x2="108.0705" y2="0"/>
</g>
<g transform="translate(5.6906, 17.8592)">
<line stroke-linejoin="round" stroke-linecap="round" stroke-width="0.1000" stroke="currentColor" x1="0.0500" y1="0" x2="108.0705" y2="0"/>
</g>
<g transform="translate(5.6906, 16.8592)">
<line stroke-linejoin="round" stroke-linecap="round" stroke-width="0.1000" stroke="currentColor" x1="0.0500" y1="0" x2="108.0705" y2="0"/>
</g>
<g transform="translate(113.6210, 9.2391)">
<rect x="0.0000" y="-2.0000" width="0.1900" height="4.0000" ry="0.0000" fill="currentColor"/>
</g>
<g transform="translate(113.6210, 18.8592)">
<rect x="0.0000" y="-2.0000" width="0.1900" height="4.0000" ry="0.0000" fill="currentColor"/>
</g>
<g transform="translate(5.6906, 29.8592)">
<line stroke-linejoin="round" stroke-linecap="round" stroke-width="0.1000" stroke="currentColor" x1="0.0500" y1="0" x2="108.0705" y2="0"/>
</g>
<g transform="translate(5.6906, 28.8592)">
<line stroke-linejoin="round" stroke-linecap="round" stroke-width="0.1000" stroke="currentColor" x1="0.0500" y1="0" x2="108.0705" y2="0"/>
</g>
<g transform="translate(5.6906, 27.8592)">
<line stroke-linejoin="round" stroke-linecap="round" stroke-width="0.1000" stroke="currentColor" x1="0.0500" y1="0" x2="108.0705" y2="0"/>
</g>
<g transform="translate(5.6906, 26.8592)">
<line stroke-linejoin="round" stroke-linecap="round" stroke-width="0.1000" stroke="currentColor" x1="0.0500" y1="0" x2="108.0705" y2="0"/>
</g>
<g transform="translate(5.6906, 25.8592)">
<line stroke-linejoin="round" stroke-linecap="round" stroke-width="0.1000" stroke="currentColor" x1="0.0500" y1="0" x2="108.0705" y2="0"/>
</g>
<g transform="translate(58.5438, 27.8592)">
<rect x="-0.0650" y="0.1861" width="0.1300" height="3.1889" ry="0.0400" fill="currentColor"/>
</g>
<g transform="translate(57.0288, 20.3592)">
<path transform="scale(0.0040, -0.0040)" d="M0 119c0 8 5 15 13 18l46 17v158c0 10 8 19 18 19s19 -9 19 -19v-145l83 31v158c0 10 9 19 19 19s18 -9 18 -19v-145l32 12c2 1 5 1 7 1c11 0 20 -9 20 -20v-60c0 -8 -5 -16 -13 -19l-46 -16v-160l32 11c2 1 5 1 7 1c11 0 20 -9 20 -20v-60c0 -8 -5 -15 -13 -18l-46 -17
v-158c0 -10 -8 -19 -18 -19s-19 9 -19 19v145l-83 -31v-158c0 -10 -9 -19 -19 -19s-18 9 -18 19v145l-32 -12c-2 -1 -5 -1 -7 -1c-11 0 -20 9 -20 20v60c0 8 5 16 13 19l46 16v160l-32 -11c-2 -1 -5 -1 -7 -1c-11 0 -20 9 -20 20v60zM179 95l-83 -30v-160l83 30v160z" fill="currentColor"/>
</g>
<a style="color:inherit;" xlink:href="textedit://C:/Users/hrstn/choir/./izhe-heruvimi-plovdivsko-melody.ly:76:42:43">
<g transform="translate(72.9344, 33.3592)">
<text font-family="serif" font-size="2.4696" text-anchor="start" fill="currentColor">
<tspan>е</tspan>
</text>
</g>
</a>
<g transform="translate(58.6088, 31.1942)">
<path transform="scale(0.0040, -0.0040)" d="M0 0h-16v250h16v-250zM0 0v250c97 59 224 148 224 259c0 57 -15 112 -40 163c-3 16 10 27 23 27c7 0 15 -3 20 -11c25 -56 40 -117 40 -179c0 -203 -267 -306 -267 -509z" fill="currentColor"/>
</g>
<a style="color:inherit;" xlink:href="textedit://C:/Users/hrstn/choir/./izhe-heruvimi-plovdivsko-melody.ly:56:19:20">
<g transform="translate(72.9115, 9.2391)">
<path transform="scale(0.0040, -0.0040)" d="M314 65c0 24 -21 41 -42 41c-4 0 -8 0 -12 -1c-31 -9 -78 -40 -115 -64s-84 -53 -104 -78c-7 -8 -10 -18 -10 -28c0 -24 21 -41 42 -41c4 0 8 0 12 1c31 9 77 40 114 64s84 53 104 78c7 8 11 18 11 28zM262 136c46 0 82 -21 82 -71c0 -19 -4 -39 -10 -57
c-12 -37 -32 -72 -64 -94c-53 -36 -113 -50 -187 -50c-46 0 -83 21 -83 71c0 19 5 39 11 57c12 37 31 72 63 94c53 36 114 50 188 50z" fill="currentColor"/>
</g>
</a>
<a style="color:inherit;" xlink:href="textedit://C:/Users/hrstn/choir/./izhe-heruvimi-plovdivsko-melody.ly:76:42:43">
<g transform="translate(72.9344, 14.3029)">
<text font-family="serif" font-size="2.4696" text-anchor="start" fill="currentColor">
<tspan>е</tspan>
</text>
</g>
</a>
<a style="color:inherit;" xlink:href="textedit://C:/Users/hrstn/choir/./izhe-heruvimi-plovdivsko-melody.ly:120:21:22">
<g transform="translate(72.9115, 19.8592)">
<path transform="scale(0.0040, -0.0040)" d="M314 65c0 24 -21 41 -42 41c-4 0 -8 0 -12 -1c-31 -9 -78 -40 -115 -64s-84 -53 -104 -78c-7 -8 -10 -18 -10 -28c0 -24 21 -41 42 -41c4 0 8 0 12 1c31 9 77 40 114 64s84 53 104 78c7 8 11 18 11 28zM262 136c46 0 82 -21 82 -71c0 -19 -4 -39 -10 -57
c-12 -37 -32 -72 -64 -94c-53 -36 -113 -50 -187 -50c-46 0 -83 21 -83 71c0 19 5 39 11 57c12 37 31 72 63 94c53 36 114 50 188 50z" fill="currentColor"/>
</g>
</a>
<a style="color:inherit;" xlink:href="textedit://C:/Users/hrstn/choir/./izhe-heruvimi-plovdivsko-melody.ly:76:42:43">
<g transform="translate(72.9344, 24.2845)">
<text font-family="serif" font-size="2.4696" text-anchor="start" fill="currentColor">
<tspan>е</tspan>
</text>
</g>
</a>
<a style="color:inherit;" xlink:href="textedit://C:/Users/hrstn/choir/./izhe-heruvimi-plovdivsko-melody.ly:167:9:10">
<g transform="translate(72.9115, 26.3592)">
<path transform="scale(0.0040, -0.0040)" d="M314 65c0 24 -21 41 -42 41c-4 0 -8 0 -12 -1c-31 -9 -78 -40 -115 -64s-84 -53 -104 -78c-7 -8 -10 -18 -10 -28c0 -24 21 -41 42 -41c4 0 8 0 12 1c31 9 77 40 114 64s84 53 104 78c7 8 11 18 11 28zM262 136c46 0 82 -21 82 -71c0 -19 -4 -39 -10 -57
c-12 -37 -32 -72 -64 -94c-53 -36 -113 -50 -187 -50c-46 0 -83 21 -83 71c0 19 5 39 11 57c12 37 31 72 63 94c53 36 114 50 188 50z" fill="currentColor"/>
</g>
</a>
<a style="color:inherit;" xlink:href="textedit://C:/Users/hrstn/choir/./izhe-heruvimi-plovdivsko-melody.ly:76:36:37">
<g transform="translate(57.4237, 14.3029)">
<text font-family="serif" font-size="2.4696" text-anchor="start" fill="currentColor">
<tspan>ни</tspan>
</text>
</g>
</a>
<g transform="translate(15.5048, 16.0492)">
<polygon stroke-linejoin="round" stroke-linecap="round" stroke-width="0.0800" fill="currentColor" stroke="currentColor" points="44.2382 0.6100 44.2382 1.0100 0.0400 0.2000 0.0400 -0.2000"/>
</g>
<g transform="translate(44.4352, 18.8592)">
<rect x="-0.0650" y="-2.2808" width="0.1300" height="3.0947" ry="0.0400" fill="currentColor"/>
</g>
<a style="color:inherit;" xlink:href="textedit://C:/Users/hrstn/choir/./izhe-heruvimi-plovdivsko-melody.ly:56:16:17">
<g transform="translate(58.4788, 9.7391)">
<path transform="scale(0.0040, -0.0040)" d="M218 136c55 0 108 -28 108 -89c0 -71 -55 -121 -102 -149c-35 -21 -75 -34 -116 -34c-55 0 -108 28 -108 89c0 71 55 121 102 149c35 21 75 34 116 34z" fill="currentColor"/>
</g>
</a>
<g transform="translate(59.7180, 18.8592)">
<rect x="-0.0650" y="-2.0012" width="0.1300" height="3.3151" ry="0.0400" fill="currentColor"/>
</g>
<a style="color:inherit;" xlink:href="textedit://C:/Users/hrstn/choir/./izhe-heruvimi-plovdivsko-melody.ly:120:17:18">
<g transform="translate(58.4788, 20.3592)">
<path transform="scale(0.0040, -0.0040)" d="M218 136c55 0 108 -28 108 -89c0 -71 -55 -121 -102 -149c-35 -21 -75 -34 -116 -34c-55 0 -108 28 -108 89c0 71 55 121 102 149c35 21 75 34 116 34z" fill="currentColor"/>
</g>
</a>
<a style="color:inherit;" xlink:href="textedit://C:/Users/hrstn/choir/./izhe-heruvimi-plovdivsko-melody.ly:76:36:37">
<g transform="translate(57.4237, 24.2845)">
<text font-family="serif" font-size="2.4696" text-anchor="start" fill="currentColor">
<tspan>ни</tspan>
</text>
</g>
</a>
<a style="color:inherit;" xlink:href="textedit://C:/Users/hrstn/choir/./izhe-heruvimi-plovdivsko-melody.ly:167:7:8">
<g transform="translate(58.4788, 27.8592)">
<path transform="scale(0.0040, -0.0040)" d="M218 136c55 0 108 -28 108 -89c0 -71 -55 -121 -102 -149c-35 -21 -75 -34 -116 -34c-55 0 -108 28 -108 89c0 71 55 121 102 149c35 21 75 34 116 34z" fill="currentColor"/>
</g>
</a>
<a style="color:inherit;" xlink:href="textedit://C:/Users/hrstn/choir/./izhe-heruvimi-plovdivsko-melody.ly:76:36:37">
<g transform="translate(57.4237, 33.3592)">
<text font-family="serif" font-size="2.4696" text-anchor="start" fill="currentColor">
<tspan>ни</tspan>
</text>
</g>
</a>
<g transform="translate(58.5438, 9.2391)">
<rect x="-0.0650" y="0.6861" width="0.1300" height="2.3127" ry="0.0400" fill="currentColor"/>
</g>
<a style="color:inherit;" xlink:href="textedit://C:/Users/hrstn/choir/./izhe-heruvimi-plovdivsko-melody.ly:56:6:7">
<g transform="translate(14.3306, 9.2391)">
<path stroke-width="0.0800" stroke-linejoin="round" stroke-linecap="round" stroke="currentColor" fill="currentColor" d="M0.6672 -2.1950C3.5276 -3.9348 26.7994 -3.1286 29.5326 -1.1950L29.5326 -1.1950C26.7952 -3.0086 3.5235 -3.8149 0.6672 -2.1950z"/>
</g>
</a>
<a style="color:inherit;" xlink:href="textedit://C:/Users/hrstn/choir/./izhe-heruvimi-plovdivsko-melody.ly:76:33:34">
<g transform="translate(51.9982, 14.3029)">
<rect x="0.0000" y="-0.5500" width="0.6600" height="0.1300" ry="0.0400" fill="currentColor"/>
</g>
<g transform="translate(41.9982, 14.3029)">
<rect x="0.0000" y="-0.5500" width="0.6600" height="0.1300" ry="0.0400" fill="currentColor"/>
</g>
<g transform="translate(31.9982, 14.3029)">
<rect x="0.0000" y="-0.5500" width="0.6600" height="0.1300" ry="0.0400" fill="currentColor"/>
</g>
<g transform="translate(21.9982, 14.3029)">
<rect x="0.0000" y="-0.5500" width="0.6600" height="0.1300" ry="0.0400" fill="currentColor"/>
</g>
</a>
<a style="color:inherit;" xlink:href="textedit://C:/Users/hrstn/choir/./izhe-heruvimi-plovdivsko-melody.ly:120:7:8">
<g transform="translate(14.3306, 18.8592)">
<path stroke-width="0.0800" stroke-linejoin="round" stroke-linecap="round" stroke="currentColor" fill="currentColor" d="M0.6371 1.1950C3.3703 3.1286 26.6420 3.9348 29.5025 2.1950L29.5025 2.1950C26.6462 3.8149 3.3744 3.0086 0.6371 1.1950z"/>
</g>
</a>
<a style="color:inherit;" xlink:href="textedit://C:/Users/hrstn/choir/./izhe-heruvimi-plovdivsko-melody.ly:76:33:34">
<g transform="translate(51.9982, 24.2845)">
<rect x="0.0000" y="-0.5500" width="0.6600" height="0.1300" ry="0.0400" fill="currentColor"/>
</g>
<g transform="translate(41.9982, 24.2845)">
<rect x="0.0000" y="-0.5500" width="0.6600" height="0.1300" ry="0.0400" fill="currentColor"/>
</g>
<g transform="translate(31.9982, 24.2845)">
<rect x="0.0000" y="-0.5500" width="0.6600" height="0.1300" ry="0.0400" fill="currentColor"/>
</g>
<g transform="translate(21.9982, 24.2845)">
<rect x="0.0000" y="-0.5500" width="0.6600" height="0.1300" ry="0.0400" fill="currentColor"/>
</g>
</a>
<a style="color:inherit;" xlink:href="textedit://C:/Users/hrstn/choir/./izhe-heruvimi-plovdivsko-melody.ly:76:33:34">
<g transform="translate(51.5987, 33.3592)">
<rect x="0.0000" y="-0.5500" width="0.6600" height="0.1300" ry="0.0400" fill="currentColor"/>
</g>
<g transform="translate(41.5987, 33.3592)">
<rect x="0.0000" y="-0.5500" width="0.6600" height="0.1300" ry="0.0400" fill="currentColor"/>
</g>
<g transform="translate(31.5987, 33.3592)">
<rect x="0.0000" y="-0.5500" width="0.6600" height="0.1300" ry="0.0400" fill="currentColor"/>
</g>
<g transform="translate(21.5987, 33.3592)">
<rect x="0.0000" y="-0.5500" width="0.6600" height="0.1300" ry="0.0400" fill="currentColor"/>
</g>
</a>
<a style="color:inherit;" xlink:href="textedit://C:/Users/hrstn/choir/./izhe-heruvimi-plovdivsko-melody.ly:76:39:40">
<g transform="translate(66.5562, 14.3029)">
<rect x="0.0000" y="-0.5500" width="0.6600" height="0.1300" ry="0.0400" fill="currentColor"/>
</g>
</a>
<a style="color:inherit;" xlink:href="textedit://C:/Users/hrstn/choir/./izhe-heruvimi-plovdivsko-melody.ly:76:39:40">
<g transform="translate(66.5562, 24.2845)">
<rect x="0.0000" y="-0.5500" width="0.6600" height="0.1300" ry="0.0400" fill="currentColor"/>
</g>
</a>
<a style="color:inherit;" xlink:href="textedit://C:/Users/hrstn/choir/./izhe-heruvimi-plovdivsko-melody.ly:76:39:40">
<g transform="translate(66.5562, 33.3592)">
<rect x="0.0000" y="-0.5500" width="0.6600" height="0.1300" ry="0.0400" fill="currentColor"/>
</g>
</a>
<g transform="translate(14.3306, 11.4291)">
<polygon stroke-linejoin="round" stroke-linecap="round" stroke-width="0.0800" fill="currentColor" stroke="currentColor" points="44.2382 0.6100 44.2382 1.0100 0.0400 0.2000 0.0400 -0.2000"/>
</g>
<g transform="translate(74.2238, 18.8592)">
<rect x="-0.0650" y="-2.5000" width="0.1300" height="3.2410" ry="0.0400" fill="currentColor"/>
</g>
<g transform="translate(72.9765, 27.8592)">
<rect x="-0.0650" y="-1.2410" width="0.1300" height="3.2410" ry="0.0400" fill="currentColor"/>
</g>
<g transform="translate(72.9765, 9.2391)">
<rect x="-0.0650" y="0.2590" width="0.1300" height="3.0743" ry="0.0400" fill="currentColor"/>
</g>
<g transform="translate(10.1106, 9.2391)">
<path transform="scale(0.0040, -0.0040)" d="M27 41l-1 -66v-11c0 -22 1 -44 4 -66c45 38 93 80 93 139c0 33 -14 67 -43 67c-31 0 -52 -30 -53 -63zM-15 -138l-12 595c8 5 18 8 27 8s19 -3 27 -8l-7 -345c25 21 58 34 91 34c52 0 89 -48 89 -102c0 -80 -86 -117 -147 -169c-15 -13 -24 -38 -45 -38
c-13 0 -23 11 -23 25z" fill="currentColor"/>
</g>
<g transform="translate(11.0306, 7.7391)">
<path transform="scale(0.0040, -0.0040)" d="M27 41l-1 -66v-11c0 -22 1 -44 4 -66c45 38 93 80 93 139c0 33 -14 67 -43 67c-31 0 -52 -30 -53 -63zM-15 -138l-12 595c8 5 18 8 27 8s19 -3 27 -8l-7 -345c25 21 58 34 91 34c52 0 89 -48 89 -102c0 -80 -86 -117 -147 -169c-15 -13 -24 -38 -45 -38
c-13 0 -23 11 -23 25z" fill="currentColor"/>
</g>
<g transform="translate(6.4906, 19.8592)">
<path transform="scale(0.0040, -0.0040)" d="M266 -635h-6c-108 0 -195 88 -195 197c0 58 53 103 112 103c54 0 95 -47 95 -103c0 -52 -43 -95 -95 -95c-11 0 -21 2 -31 6c26 -39 68 -65 117 -65h4zM461 -203c68 24 113 95 113 164c0 90 -66 179 -173 190c24 -116 46 -231 60 -354zM74 28c0 -135 129 -247 264 -247
c28 0 55 2 82 6c-14 127 -37 245 -63 364c-79 -8 -124 -61 -124 -119c0 -44 25 -91 81 -123c5 -5 7 -10 7 -15c0 -11 -10 -22 -22 -22c-3 0 -6 1 -9 2c-80 43 -117 115 -117 185c0 88 58 174 160 197c-14 58 -29 117 -46 175c-107 -121 -213 -243 -213 -403zM335 -262
c-188 0 -333 172 -333 374c0 177 131 306 248 441c-19 62 -37 125 -45 190c-6 52 -7 104 -7 156c0 115 55 224 149 292c6 5 14 5 20 0c71 -84 133 -245 133 -358c0 -143 -86 -255 -180 -364c21 -68 39 -138 56 -207c4 0 9 1 13 1c155 0 256 -128 256 -261
c0 -76 -33 -154 -107 -210c-22 -17 -47 -28 -73 -36c3 -35 5 -70 5 -105c0 -19 -1 -39 -2 -58c-7 -119 -88 -225 -202 -228l1 43c93 2 153 92 159 191c1 18 2 37 2 55c0 31 -1 61 -4 92c-29 -5 -58 -8 -89 -8zM428 916c0 55 -4 79 -20 129c-99 -48 -162 -149 -162 -259
c0 -74 18 -133 36 -194c80 97 146 198 146 324z" fill="currentColor"/>
</g>
<g transform="translate(10.1106, 18.8592)">
<path transform="scale(0.0040, -0.0040)" d="M27 41l-1 -66v-11c0 -22 1 -44 4 -66c45 38 93 80 93 139c0 33 -14 67 -43 67c-31 0 -52 -30 -53 -63zM-15 -138l-12 595c8 5 18 8 27 8s19 -3 27 -8l-7 -345c25 21 58 34 91 34c52 0 89 -48 89 -102c0 -80 -86 -117 -147 -169c-15 -13 -24 -38 -45 -38
c-13 0 -23 11 -23 25z" fill="currentColor"/>
</g>
<g transform="translate(11.0306, 17.3592)">
<path transform="scale(0.0040, -0.0040)" d="M27 41l-1 -66v-11c0 -22 1 -44 4 -66c45 38 93 80 93 139c0 33 -14 67 -43 67c-31 0 -52 -30 -53 -63zM-15 -138l-12 595c8 5 18 8 27 8s19 -3 27 -8l-7 -345c25 21 58 34 91 34c52 0 89 -48 89 -102c0 -80 -86 -117 -147 -169c-15 -13 -24 -38 -45 -38
c-13 0 -23 11 -23 25z" fill="currentColor"/>
</g>
<g transform="translate(6.4906, 26.8592)">
<path transform="scale(0.0040, -0.0040)" d="M557 -125c0 28 23 51 51 51s51 -23 51 -51s-23 -51 -51 -51s-51 23 -51 51zM557 125c0 28 23 51 51 51s51 -23 51 -51s-23 -51 -51 -51s-51 23 -51 51zM232 263c172 0 293 -88 293 -251c0 -263 -263 -414 -516 -521c-3 -3 -6 -4 -9 -4c-7 0 -13 6 -13 13c0 3 1 6 4 9
c202 118 412 265 412 493c0 120 -63 235 -171 235c-74 0 -129 -54 -154 -126c11 5 22 8 34 8c55 0 100 -45 100 -100c0 -58 -44 -106 -100 -106c-60 0 -112 47 -112 106c0 133 102 244 232 244z" fill="currentColor"/>
</g>
<g transform="translate(10.1106, 28.8592)">
<path transform="scale(0.0040, -0.0040)" d="M27 41l-1 -66v-11c0 -22 1 -44 4 -66c45 38 93 80 93 139c0 33 -14 67 -43 67c-31 0 -52 -30 -53 -63zM-15 -138l-12 595c8 5 18 8 27 8s19 -3 27 -8l-7 -345c25 21 58 34 91 34c52 0 89 -48 89 -102c0 -80 -86 -117 -147 -169c-15 -13 -24 -38 -45 -38
c-13 0 -23 11 -23 25z" fill="currentColor"/>
</g>
<g transform="translate(11.0306, 27.3592)">
<path transform="scale(0.0040, -0.0040)" d="M27 41l-1 -66v-11c0 -22 1 -44 4 -66c45 38 93 80 93 139c0 33 -14 67 -43 67c-31 0 -52 -30 -53 -63zM-15 -138l-12 595c8 5 18 8 27 8s19 -3 27 -8l-7 -345c25 21 58 34 91 34c52 0 89 -48 89 -102c0 -80 -86 -117 -147 -169c-15 -13 -24 -38 -45 -38
c-13 0 -23 11 -23 25z" fill="currentColor"/>
</g>
<g transform="translate(6.4906, 10.2391)">
<path transform="scale(0.0040, -0.0040)" d="M266 -635h-6c-108 0 -195 88 -195 197c0 58 53 103 112 103c54 0 95 -47 95 -103c0 -52 -43 -95 -95 -95c-11 0 -21 2 -31 6c26 -39 68 -65 117 -65h4zM461 -203c68 24 113 95 113 164c0 90 -66 179 -173 190c24 -116 46 -231 60 -354zM74 28c0 -135 129 -247 264 -247
c28 0 55 2 82 6c-14 127 -37 245 -63 364c-79 -8 -124 -61 -124 -119c0 -44 25 -91 81 -123c5 -5 7 -10 7 -15c0 -11 -10 -22 -22 -22c-3 0 -6 1 -9 2c-80 43 -117 115 -117 185c0 88 58 174 160 197c-14 58 -29 117 -46 175c-107 -121 -213 -243 -213 -403zM335 -262
c-188 0 -333 172 -333 374c0 177 131 306 248 441c-19 62 -37 125 -45 190c-6 52 -7 104 -7 156c0 115 55 224 149 292c6 5 14 5 20 0c71 -84 133 -245 133 -358c0 -143 -86 -255 -180 -364c21 -68 39 -138 56 -207c4 0 9 1 13 1c155 0 256 -128 256 -261
c0 -76 -33 -154 -107 -210c-22 -17 -47 -28 -73 -36c3 -35 5 -70 5 -105c0 -19 -1 -39 -2 -58c-7 -119 -88 -225 -202 -228l1 43c93 2 153 92 159 191c1 18 2 37 2 55c0 31 -1 61 -4 92c-29 -5 -58 -8 -89 -8zM428 916c0 55 -4 79 -20 129c-99 -48 -162 -149 -162 -259
c0 -74 18 -133 36 -194c80 97 146 198 146 324z" fill="currentColor"/>
</g>
<a style="color:inherit;" xlink:href="textedit://C:/Users/hrstn/choir/./izhe-heruvimi-plovdivsko-melody.ly:56:2:3">
<g transform="translate(14.3306, 8.2391)">
<path transform="scale(0.0040, -0.0040)" d="M218 136c55 0 108 -28 108 -89c0 -71 -55 -121 -102 -149c-35 -21 -75 -34 -116 -34c-55 0 -108 28 -108 89c0 71 55 121 102 149c35 21 75 34 116 34z" fill="currentColor"/>
</g>
</a>
<a style="color:inherit;" xlink:href="textedit://C:/Users/hrstn/choir/./izhe-heruvimi-plovdivsko-melody.ly:76:30:31">
<g transform="translate(14.3306, 14.3029)">
<text font-family="serif" font-size="2.4696" text-anchor="start" fill="currentColor">
<tspan>че</tspan>
</text>
</g>
</a>
<g transform="translate(4.3806, 6.9641)">
<path transform="scale(0.0040, -0.0040)" d="M0 -56v87c0 14 11 25 25 25h50c159 0 271 136 362 270c11 17 37 -1 26 -18c-99 -144 -215 -364 -388 -364h-75z" fill="currentColor"/>
</g>
<g transform="translate(4.3806, 30.1342)">
<path transform="scale(0.0040, -0.0040)" d="M0 56h75c173 0 289 -220 388 -364c11 -17 -15 -35 -26 -18c-91 134 -203 270 -362 270h-50c-14 0 -25 11 -25 25v87z" fill="currentColor"/>
</g>
<g transform="translate(4.3806, 18.5492)">
<rect x="0.0000" y="-11.4050" width="0.4500" height="22.8100" ry="0.0000" fill="currentColor"/>
</g>
<g transform="translate(5.6306, 18.5492)">
<rect x="0.0000" y="-11.3600" width="0.1600" height="22.7200" ry="0.0500" fill="currentColor"/>
</g>
<a style="color:inherit;" xlink:href="textedit://C:/Users/hrstn/choir/./izhe-heruvimi-plovdivsko-melody.ly:120:2:3">
<g transform="translate(14.3306, 18.8592)">
<path transform="scale(0.0040, -0.0040)" d="M218 136c55 0 108 -28 108 -89c0 -71 -55 -121 -102 -149c-35 -21 -75 -34 -116 -34c-55 0 -108 28 -108 89c0 71 55 121 102 149c35 21 75 34 116 34z" fill="currentColor"/>
</g>
</a>
<a style="color:inherit;" xlink:href="textedit://C:/Users/hrstn/choir/./izhe-heruvimi-plovdivsko-melody.ly:56:7:8">
<g transform="translate(28.7633, 8.7391)">
<path transform="scale(0.0040, -0.0040)" d="M218 136c55 0 108 -28 108 -89c0 -71 -55 -121 -102 -149c-35 -21 -75 -34 -116 -34c-55 0 -108 28 -108 89c0 71 55 121 102 149c35 21 75 34 116 34z" fill="currentColor"/>
</g>
</a>
<a style="color:inherit;" xlink:href="textedit://C:/Users/hrstn/choir/./izhe-heruvimi-plovdivsko-melody.ly:120:8:9">
<g transform="translate(28.7633, 19.3592)">
<path transform="scale(0.0040, -0.0040)" d="M218 136c55 0 108 -28 108 -89c0 -71 -55 -121 -102 -149c-35 -21 -75 -34 -116 -34c-55 0 -108 28 -108 89c0 71 55 121 102 149c35 21 75 34 116 34z" fill="currentColor"/>
</g>
</a>
<g transform="translate(28.8283, 9.2391)">
<rect x="-0.0650" y="-0.3139" width="0.1300" height="2.7691" ry="0.0400" fill="currentColor"/>
</g>
<g transform="translate(30.0025, 18.8592)">
<rect x="-0.0650" y="-2.5448" width="0.1300" height="2.8587" ry="0.0400" fill="currentColor"/>
</g>
<a style="color:inherit;" xlink:href="textedit://C:/Users/hrstn/choir/./izhe-heruvimi-plovdivsko-melody.ly:56:10:11">
<g transform="translate(43.1960, 9.2391)">
<path transform="scale(0.0040, -0.0040)" d="M218 136c55 0 108 -28 108 -89c0 -71 -55 -121 -102 -149c-35 -21 -75 -34 -116 -34c-55 0 -108 28 -108 89c0 71 55 121 102 149c35 21 75 34 116 34z" fill="currentColor"/>
</g>
</a>
<a style="color:inherit;" xlink:href="textedit://C:/Users/hrstn/choir/./izhe-heruvimi-plovdivsko-melody.ly:120:11:12">
<g transform="translate(43.1960, 19.8592)">
<path transform="scale(0.0040, -0.0040)" d="M218 136c55 0 108 -28 108 -89c0 -71 -55 -121 -102 -149c-35 -21 -75 -34 -116 -34c-55 0 -108 28 -108 89c0 71 55 121 102 149c35 21 75 34 116 34z" fill="currentColor"/>
</g>
</a>
<g transform="translate(43.2610, 9.2391)">
<rect x="-0.0650" y="0.1861" width="0.1300" height="2.5331" ry="0.0400" fill="currentColor"/>
</g>
<a style="color:inherit;" xlink:href="textedit://C:/Users/hrstn/choir/./izhe-heruvimi-plovdivsko-melody.ly:76:30:31">
<g transform="translate(14.3306, 24.2845)">
<text font-family="serif" font-size="2.4696" text-anchor="start" fill="currentColor">
<tspan>че</tspan>
</text>
</g>
</a>
<a style="color:inherit;" xlink:href="textedit://C:/Users/hrstn/choir/./izhe-heruvimi-plovdivsko-melody.ly:167:2:3">
<g transform="translate(14.3306, 27.8592)">
<path transform="scale(0.0040, -0.0040)" d="M218 136c55 0 108 -28 108 -89c0 -71 -55 -121 -102 -149c-35 -21 -75 -34 -116 -34c-55 0 -108 28 -108 89c0 71 55 121 102 149c35 21 75 34 116 34z" fill="currentColor"/>
</g>
</a>
<a style="color:inherit;" xlink:href="textedit://C:/Users/hrstn/choir/./izhe-heruvimi-plovdivsko-melody.ly:76:30:31">
<g transform="translate(13.5316, 33.3592)">
<text font-family="serif" font-size="2.4696" text-anchor="start" fill="currentColor">
<tspan>че</tspan>
</text>
</g>
</a>
<g transform="translate(14.3956, 9.2391)">
<rect x="-0.0650" y="-0.8139" width="0.1300" height="3.0051" ry="0.0400" fill="currentColor"/>
</g>
<g transform="translate(15.5698, 18.8592)">
<rect x="-0.0650" y="-2.8088" width="0.1300" height="2.6227" ry="0.0400" fill="currentColor"/>
</g>
<g transform="translate(16.0848, 27.3592)">
<path transform="scale(0.0040, -0.0040)" d="M0 0c0 31 25 56 56 56s56 -25 56 -56s-25 -56 -56 -56s-56 25 -56 56z" fill="currentColor"/>
</g>
<g transform="translate(14.3956, 27.8592)">
<rect x="-0.0650" y="0.1861" width="0.1300" height="3.1472" ry="0.0400" fill="currentColor"/>
</g>
<g transform="translate(26.2414, 165.2217)">
<text font-family="serif" font-size="1.5555" text-anchor="start" fill="currentColor">
<tspan>C:/Users/hrstn/choir/./izhe-heruvimi-plovdivsko-SAB.ly</tspan>
</text>
</g>
<g transform="translate(66.9257, 165.2217)">
<text font-family="serif" font-size="1.5555" text-anchor="start" fill="currentColor">
<tspan>,</tspan>
</text>
</g>
<g transform="translate(67.9013, 165.2217)">
<text font-family="serif" font-size="1.5555" text-anchor="start" fill="currentColor">
<tspan>последна</tspan>
</text>
</g>
<g transform="translate(75.8079, 165.2217)">
<text font-family="serif" font-size="1.5555" text-anchor="start" fill="currentColor">
<tspan>редация</tspan>
</text>
</g>
<g transform="translate(82.9293, 165.2217)">
<text font-family="serif" font-size="1.5555" text-anchor="start" fill="currentColor">
<tspan>на</tspan>
</text>
</g>
<g transform="translate(85.4755, 165.2217)">
<text font-family="serif" font-size="1.5555" text-anchor="start" fill="currentColor">
<tspan>2024-06-09</tspan>
</text>
</g>
</svg>
